<?xml version="1.0" encoding="UTF-8" standalone="no"?>
<svg
   version="1.1"
   style="display:block"
   viewBox="0 0 2048.1849 2048"
   width="555"
   height="555"
   preserveAspectRatio="none"
   id="svg54"
   sodipodi:docname="NanoBuddyMascotB.svg"
   inkscape:version="1.4 (86a8ad7, 2024-10-11)"
   inkscape:export-filename="NanoBuddyMascotMini.svg"
   inkscape:export-xdpi="6.9189191"
   inkscape:export-ydpi="6.9189191"
   xmlns:inkscape="http://www.inkscape.org/namespaces/inkscape"
   xmlns:sodipodi="http://sodipodi.sourceforge.net/DTD/sodipodi-0.dtd"
   xmlns="http://www.w3.org/2000/svg"
   xmlns:svg="http://www.w3.org/2000/svg">
  <defs
     id="defs54" />
  <sodipodi:namedview
     id="namedview54"
     pagecolor="#ffffff"
     bordercolor="#666666"
     borderopacity="1.0"
     inkscape:showpageshadow="2"
     inkscape:pageopacity="0.0"
     inkscape:pagecheckerboard="0"
     inkscape:deskcolor="#d1d1d1"
     inkscape:zoom="1.3459459"
     inkscape:cx="215.09037"
     inkscape:cy="201.71687"
     inkscape:window-width="1920"
     inkscape:window-height="986"
     inkscape:window-x="-11"
     inkscape:window-y="-11"
     inkscape:window-maximized="1"
     inkscape:current-layer="svg54" />
  <path
     fill="#000000"
     d="m 1023.7615,478.65323 c 12.365,-25.654 20.466,-50.762 23.852,-79.111 3.832,-32.085 12.045,-133.291 0.734,-160.439 -5.493,-13.185 -17.167,-23.464 -25.802,-34.622 -4.012,-5.185 -7.619,-11.2 -9.4,-17.554 -6.152,-21.949 -4.342,-77.7088 -1.125,-100.809697 1.568,-11.2596 5.368,-19.6452 14.663,-26.549 6.045,-4.4898 13.239,-7.2269 20.211,-9.9152 29.181,-11.25151 51.394,-11.13718 82.039,-6.72961 19.445,2.79671 39.907,6.84211 52.215,23.60081 20.89,28.4352 19.91,76.931697 19.89,110.830697 -0.01,16.112 0.33,32.147 -2.08,48.122 15.31,-24.226 42.04,-49.607 64.86,-67.148 31.11,-23.9072 54.78,-36.0617 94.8,-37.3746 9.69,-0.3179 19.64,-0.7657 29.27,0.581 12.64,1.7675 24.35,7.6435 32.1,17.9906 11.19,14.964 8.66,32.555 6.16,49.848 5.65,7.289 10.75,14.686 14.04,23.363 5.52,14.55 6.53,35.451 1.95,50.35 -11.37,36.944 -96.22,65.762 -129.2,81.707 -16.06,7.763 -45.44,24.993 -60.05,35.415 -10.99,7.836 -18.71,19.521 -26.57,30.279 -7.56,10.34 -15.39,21.047 -20.44,32.89 -9.53,22.372 -8.64,62.108 -9.78,86.798 -0.54,11.724 -1.52,24.999 -6.59,35.737 -0.14,0.288 -0.29,0.57 -0.43,0.855 9.05,5.016 17.31,11.431 25.27,18.003 85.23,70.36 134.19,198.092 144.38,305.921 58.5,38.24 78.1,63.875 112.81,123.35197 18.19,0.731 34.86,1.754 52.83,5.224 -0.36,-24.90897 6.93,-48.09897 19.67,-69.38397 15.02,-25.086 36.81,-44.586 65.66,-51.744 39,-9.673 76.27,-1.115 110.11,19.08 51.72,30.871 83.63,92.83697 97.82,149.44097 19.61,78.24 5.57,159.8 -35.59,228.46 1.85,28.22 6.2,55.38 5.73,83.82 -2.52,149.47 -87.95,284.68 -192.81,385.38 -12.24,11.76 -25.46,23.26 -38.88,33.66 -12.75,9.88 -73.5804,62.9088 -104.8714,80.011 -90.9272,45.9424 -89.7649,50.6927 -189.3997,76.5438 -152.161,20.18 -222.5765,26.1893 -364.09467,7.2855 -91.02267,-19.1812 -154.65403,-33.7378 -232.22612,-74.1496 -16.409,-8.05 -114.87312,-88.1207 -136.23712,-108.0207 -54.518,-50.8 -104.628,-116.21 -140.809,-181.27 -53.199,-95.67 -76.241,-185.78 -74.977,-295.34 0.538,-60.05 9.298,-119.75 26.034,-177.43 -5.017,-2.13 -9.771,-4.59 -14.283,-7.67 -29.066,-19.81 -47.488,-54.5 -53.9397,-88.36 -8.3885,-44.03397 3.4987,-91.35597 28.3517,-128.13197 -1.529,-21.37 -2.029,-43.427 0.266,-64.758 5.853,-54.42 29.746,-115.122 56.516,-162.407 28.614,-50.543 94.258,-130.893 152.177,-146.915 -16.155,-15.133 -64.566,-98.678 -70.252,-102.049 -1.453,-0.861 -3.815,-1.364 -5.451,-1.949 -1.856,-2.603 0.214,-3.392 -0.449,-6.394 -49.992,-35.155 -94.032,-79.807 -147.325,-110.036 -20.8038,-11.8 -43.9837,-16.65 -65.1278,-27.214 -17.3522,-8.67 -34.1019,-23.922 -40.14411,-42.861 -5.15577,-16.159 -3.49264,-39.013 4.58191,-54.021 6.5096,-12.098 15.4944,-17.418 28.3838,-21.36 5.3724,-15.915 12.0796,-32.2545 27.3716,-41.0004 16.5433,-9.4615 44.0096,-7.5423 61.7466,-2.6599 11.812,3.2118 23.001,8.3816 33.103,15.2943 29.64,19.969 81.981,73.722 99.484,104.823 -0.544,-4.51 -0.869,-9.044 -0.975,-13.586 -0.972,-35.945 8.344,-129.965097 34.211,-156.046797 11.787,-11.8856 37.595,-15.228 53.482,-12.7361 7.91,1.2407 15.857,4.1712 23.843,4.632 9.488,0.5475 19.506,-1.5261 29.123,-1.5319 17.822,-0.0107 41.373,-1.4286 54.771,12.661 10.424,10.962 11.712,27.4681 11.667,41.817097 -0.048,15.4146 0.34,32.1617 -3.799,47.0787 -14.431,52.005 -66.172,83.075 -66.667,141.845 -0.133,15.765 7.629,30.735 15.81,43.776 5.716,9.112 12.318,17.972 19.224,26.214 8.059,9.617 17.383,18.166 25.91,27.367 16.126,17.401 40.841,46.43 59.317,59.988 14.028,10.295 32.12,12.542 45.956,24.118 12.635,10.571 19.44,25.633 30.919,37.007 l 0.834,0.811 c 9.639,2.4 20.068,3.141 29.925,4.477 24.16,3.273 47.996,5.424 72.328,7.048 15.888,1.06 31.792,2.362 47.717,1.368 8.055,-5.3 14.932,-13.573 22.356,-19.874 23.824,-20.223 52.115,-33.234 83.30201,-35.722 z"
     id="path1"
     sodipodi:nodetypes="cccccsscsccccsscccccccccccccccccccccccccccccccccccccccccccccccccccsssscccccccsccccccc" />
  <path
     fill="#f15b58"
     d="m 1033.6385,494.83723 c 10.424,-18.263 19.333,-39.482 24.398,-59.897 9.02,-36.351 20.245,-166.234 7.856,-199.183 -10.167,-27.039 -38.162,-38.494 -39.309,-70.657 -0.618,-17.329 -1.579,-61.9962 1.863,-76.766697 1.009,-4.3316 2.599,-7.8739 5.773,-11.0543 18.357,-18.393 60.114,-17.557 84.317,-16.9509 13.972,0.3499 34.96,1.4513 45.008,12.6856 6.493,7.2602 9.16,18.1503 11.504,27.370597 13.42,52.8367 8.53,108.5877 4.97,162.3357 25.91,-24.466 49.38,-52.804 76.38,-75.392 30.66,-25.644 58.67,-44.975 99.8,-48.289 8.43,-0.679 17.16,-1.459 25.59,-0.65 8.3,0.796 17.22,3.319 22.55,10.171 10.83,13.905 2.67,32.667 1.12,48.126 l -0.12,1.252 c 3.37,1.722 6.99,3.206 9.62,5.991 10.74,11.452 14.83,26.937 14.37,42.452 -0.32,10.693 -4.13,18.058 -11.87,25.229 -14.07,13.023 -31.6,21.078 -48.69,29.249 -20.08,9.603 -40.89,17.89 -60.81,27.674 -13.82,6.787 -27.22,14.905 -40.5,22.697 -9.42,5.521 -19.66,10.926 -27.8,18.257 -11.34,10.212 -20.41,23.642 -28.93,36.22 -23.59,34.811 -28.43,48.375 -30.4,90.423 -0.99,21.106 -1.2,42.21 -3.09,63.268 -19.482,-5.389 -37.701,-13.859 -57.645,-17.743 -37.431,-3.702 -72.015,-2.233 -102.398,22.805 -7.445,6.135 -15.108,13.659 -20.92301,21.401 13.39001,-5.866 24.57001,-15.545 38.37601,-20.684 26.776,-11.542 56.711,-11.881 84.933,-5.878 13.096,3.307 26.583,6.446 39.047,11.707 48.27,20.373 85.5,62.784 111.84,106.909 22.19,37.183 38.49,76.908 51.29,118.206 2.98,9.6 7.08,21.166 7.77,31.197 13.96,48.123 18.88,122.735 9.23,171.954 -3.62,18.23297 -9.95,35.82197 -18.78,52.17897 -24.64,44.77 -65.85,80.18 -115.28,94.58 -17.81,5.18 -40.489,7.77 -59.002,4.74 -18.661,-0.59 -36.009,-4.54 -53.677,-10.34 -40.089,-13.17 -68.627,-33.61 -99.40301,-62.13 13.31001,34.33 56.63801,55.34 87.83701,70.78 11.503,4.62 22.844,9.49 34.958,12.3 16.988,3.41 33.578,5.94 50.936,6.29 45.111,0.92 93.721,-22.16 126.021,-53.22 41.91,-40.31 61.99,-94.592 66.92,-151.70797 1.42,-16.363 1.28,-33.009 1.61,-49.429 44.28,27.941 72.62,64.546 98.05,109.70197 9.43,16.745 19.07,33.565 26.98,51.095 5.35,11.85 9.58,24.33 14.34,36.44 7.35,19.59 14.53,45.27 25.15,62.99 -6.82,-48.79 -20.71,-100.21 -45.74,-143 15.95,1.821 31.97,3.097 47.51,7.33 19.62,5.34 38.01,13.92 56.06,23.13 44.95,22.93 86.22,51.34 117.82,91.18 13.22,16.66 24.84,35.27 33.35,54.78 43.47,82.19 44.03,197.46 17.07,284.78 -45.5,147.38 -170.41,287.44 -306.08,358.77 -113.95,58.59 -239.18,91.93 -367.168,97.77 l -0.554,-0.62 c 4.208,-2.12 27.848,-5.13 35.244,-7.21 28.868,-8.31 57.028,-18.9 84.218,-31.68 87.1,-41.36 163.8,-113.08 215.53,-194.04 10.62,-16.62 20.65,-34.01 30.17,-51.28 4.3,-7.79 8.5,-19.3 14.14,-25.98 10.57,-20.38 21.75,-42.4 25.95,-65.11 -9.61,14.82 -19.49,30.94 -27.25,46.82 -5.73,12.55 -13.78,24.36 -20.66,36.34 -41.07,71.44 -91.06,133.49 -155.14,185.58 -15.08,12.26 -30.28,24.35 -46.8,34.64 -32.42,20.21 -66.523,35.51 -102.687,47.74 -26.844,9.07 -55.286,17.47 -83.356,21.59 -63.34801,9.32 -138.25201,-1.24 -200.43901,-15.85 -182.454,-42.87 -328.265,-154.04 -426.345,-312.75 -97.117,-157.14 -106.453,-308.65 -65.085,-484.78 8.302,3.36 17.631,5.36 26.462,6.72 41.725,6.43 82.327,-5.69 117.451,-28.19 8.923,-5.72 17.279,-12.54 25.845,-18.79 8.403,-7.06 15.769,-15.65 22.843,-24.03 -23.042,13.8 -42.168,31.18 -67.429,41.49 -11.064,4.17 -22.361,7.37 -33.727,10.6 -19.042,5.31 -45.111,4.96 -64.54,1.22 -30.202,-5.8 -56.659,-21.4 -73.929,-47.14 -18.97,-28.2 -25.946,-62.791 -19.39,-96.13997 1.524,-20.473 9.803,-39.012 18.09,-57.468 2.946,9.336 5.861,18.667 9.218,27.865 8.785,21.242 21.31,39.049 40.329,52.28997 30.431,21.339 68.158,29.561 104.708,22.818 40.146,-7.36 80.265,-35.25197 107.101,-65.30697 10.082,-11.291 18.531,-23.536 27.109,-35.99 24.974,-35.41 44.935,-100.248 49.89,-143.162 5.752,-49.819 6.859,-115.288 -26.165,-156.381 -18.522,-23.047 -42.923,-33.976 -72.036,-37.026 -40.256,-4.217 -81.78,11.139 -112.679,36.265 -4.386,-3.689 -3.501,-9.225 -7.877,-13.049 15.011,-19.957 52.193,-47.294 74.834,-57.843 12.508,-5.828 25.413,-9.422 38.693,-12.97 20.203,-6.187 40.967,-9.129 61.917,-4.805 17.738,0.761 36.488,12.42 51.673,20.692 -2.896,-5.394 -5.902,-10.736 -9.785,-15.496 -15.071,-18.476 -37.796,-22.428 -60.306,-24.603 -4.734,0.489 -9.756,0.307 -14.529,0.443 -14.878,3.247 -29.939,4.459 -44.776,8.392 -15.683,-25.497 -33.73,-49.858 -50.572,-74.619 -8.713,-12.809 -17.157,-29.529 -27.989,-40.445 -6.305,-6.354 -14.521,-11.451 -21.65,-16.888 -11.221,-8.677 -22.389,-17.423 -33.502,-26.239 -25.444,-20.077 -54.807,-48.04 -81.491,-64.155 -26.613,-16.073 -91.5186,-34.036 -106.6882,-56.985 -6.0267,-9.117 -8.1873,-21.203 -6.1089,-31.889 0.7829,-6.599 1.1033,-14.152 4.625,-19.936 4.9901,-8.197 15.3409,-9.532 23.9105,-11.538 1.4838,-8.732 3.9785,-16.317 8.1945,-24.148 4.1645,-7.734 10.0203,-15.927 18.7434,-18.591 14.2715,-3.8388 39.4827,-1.6324 53.3287,2.722 58.264,22.189 100.93,93.806 146.246,135.054 -3.673,-51.402 0.523,-103.064 12.443,-153.1997 2.768,-11.6506 5.384,-24.866097 12.024,-35.014297 4.505,-6.8854 15.47,-10.5594 23.173,-12.1304 8.755,-1.7856 23.322,-4.36 31.23,0.8486 3.216,5.1422 1.48,9.5232 0.286,15.0805 26.565,-14.7315 51.94,-17.5705 81.52,-10.4047 4.531,2.5276 6.434,5.8712 7.898,10.7775 4.354,14.595697 4.477,51.659497 1.333,67.246497 -1.088,5.394 -3.131,10.179 -5.894,14.928 -7.052,12.125 -14.517,24.606 -22.238,36.323 -7.113,10.795 -15.292,21.233 -21.595,32.506 -13.012,23.27 -20.428,54.385 -13.716,80.709 5.033,19.737 15.905,35.162 25.73,52.49 18.965,23.246 40.599,44.927 61.846,66.064 10.382,10.328 20.737,21.595 32.213,30.72 8.787,6.986 19.702,10.526 29.774,15.237 23.356,10.925 37.859,31.026 52.382,51.376 12.443,2.405 25.262,3.735 37.821,5.468 41.852,5.777 85.299,10.506 127.609,8.565 8.731,-6.45 15.823,-15.44 24.112,-22.549 22.432,-19.239 54.68201,-33.478 84.46901,-34.643 z"
     id="path3" />
  <path
     fill="#bd3434"
     d="m 524.93449,1091.4312 1.446,2.48 c 3.149,-0.11 5.561,-1.51 8.352,-2.86 -23.792,23.23 -50.618,43.4 -78.493,61.48 -12.617,8.18 -26.115,14.9 -39.156,22.37 -8.821,5.05 -17.168,10.88 -25.907,16.06 -6.481,3.84 -16.869,7.54 -21.599,13.37 -4.667,5.76 -7.161,15.36 -9.614,22.27 -12.347,34.81 -19.852,65.54 -20.308,102.64 -0.291,23.69 3.995,45.93 9.236,68.92 19.09,83.74 53.019,131.47 108.425,195.09 6.967,8 13.305,16.63 20.475,24.43 -6.706,-13.86 -11.247,-26.31 -14.59,-41.36 5.871,11.84 14.443,22.22 22.757,32.42 10.738,13.17 22.039,26.45 34.865,37.65 38.504,33.63 100.956,66.07 149.192,82.34 22.148,7.47 44.038,13.25 67.261,15.85 -6.437,-8.81 -43.131,-47.91 -43.802,-53.45 7.123,0.46 17.044,12.33 23.554,16.24 5.787,3.47 12.182,6.5 18.304,9.34 38.258,17.92 79.339,29.06 121.411,32.92 -11.469,-13.83 -22.422,-27.9 -32.478,-42.8 42.654,5.03 82.321,22.5 124.064,31.8 129.63401,28.88 245.23901,-6.13 347.98901,-87.66 4.74,-3.76 8.98,-7.95 13.13,-12.35 -5.64,10.91 -14.09,19.6 -20.11,30.18 -19.08,33.55 -34.67,67.33 -60.46,96.65 -9.06,10.3 -19.67,18.68 -29.12,28.47 68.61,-33.57 136.73,-69.77 189.24,-126.64 -6.2,10.89 -12.8,21.62 -17.88,33.09 20.23,-14.64 40.44,-32.1 56.96,-50.83 4.86,-5.51 18.05,-27.35 22.59,-29.76 0.91,-0.49 3.86,-0.46 5.02,-0.6 -5.73,12.55 -13.78,24.36 -20.66,36.34 -41.07,71.44 -91.06,133.49 -155.14,185.58 -15.08,12.26 -30.28,24.35 -46.8,34.64 -32.42,20.21 -66.523,35.51 -102.687,47.74 -26.844,9.07 -55.286,17.47 -83.356,21.59 -63.34801,9.32 -138.25201,-1.24 -200.43901,-15.85 -182.454,-42.87 -328.265,-154.04 -426.345,-312.75 -97.117,-157.14 -106.453,-308.65 -65.085,-484.78 8.302,3.36 17.631,5.36 26.462,6.72 41.725,6.43 82.327,-5.69 117.451,-28.19 8.923,-5.72 17.279,-12.54 25.845,-18.79 z"
     id="path4" />
  <path
     fill="#bd3434"
     d="m 1734.4185,1206.9612 c 43.47,82.19 44.03,197.46 17.07,284.78 -45.5,147.38 -170.41,287.44 -306.08,358.77 -113.95,58.59 -239.18,91.93 -367.168,97.77 l -0.554,-0.62 c 4.208,-2.12 27.848,-5.13 35.244,-7.21 28.868,-8.31 57.028,-18.9 84.218,-31.68 87.1,-41.36 163.8,-113.08 215.53,-194.04 10.62,-16.62 20.65,-34.01 30.17,-51.28 4.3,-7.79 8.5,-19.3 14.14,-25.98 l 2.31,1.12 c 17.47,-0.98 36.07,-8.19 51.36,-16.35 13.27,-7.07 25.06,-16.52 36.93,-25.67 56.86,-43.85 105.43,-102.1 126.91,-171.63 -0.45,16.3 -2.3,32.52 -5.54,48.49 33.42,-55.14 58.17,-123.97 61.97,-188.55 1.54,-26.25 -0.57,-52.54 0.52,-78.51 1.33,1.2 1.12,1.15 1.53,2.75 z"
     id="path5" />
  <path
     fill="#bd3434"
     d="m 1405.3385,197.93823 c 3.37,1.722 6.99,3.206 9.62,5.991 10.74,11.452 14.83,26.937 14.37,42.452 -0.32,10.693 -4.13,18.058 -11.87,25.229 -14.07,13.023 -31.6,21.078 -48.69,29.249 -20.08,9.603 -40.89,17.89 -60.81,27.674 -13.82,6.787 -27.22,14.905 -40.5,22.697 -9.42,5.521 -19.66,10.926 -27.8,18.257 -11.34,10.212 -20.41,23.642 -28.93,36.22 -23.59,34.811 -28.43,48.375 -30.4,90.423 -0.99,21.106 -1.2,42.21 -3.09,63.268 -19.482,-5.389 -37.701,-13.859 -57.645,-17.743 1.52,-0.042 4.698,0.153 6.109,-0.334 1.942,-0.671 4.459,-3.626 5.877,-5.171 15.493,-16.884 17.548,-41.125 23.851,-62.227 5.772,-19.323 11.676,-41.818 22.858,-58.72 6.94,-10.485 15.61,-19.829 24,-29.157 33.02,-36.711 69.63,-65.709 112.88,-89.486 21.68,-11.919 45.77,-22.342 66.08,-36.439 13.42,-9.313 20.07,-20.005 22.94,-35.991 1.27,-8.625 2.74,-17.518 1.15,-26.192 z"
     id="path6" />
  <path
     fill="#a3201f"
     d="m 1405.3385,197.93823 c 3.37,1.722 6.99,3.206 9.62,5.991 -0.8,0.629 -1.77,1.086 -2.39,1.887 -2.85,3.639 -1.1,21.017 -7.43,21.929 l -0.95,-3.615 c 1.27,-8.625 2.74,-17.518 1.15,-26.192 z"
     id="path7" />
  <path
     fill="#bd3434"
     d="m 1360.8985,913.31423 c 44.28,27.941 72.62,64.546 98.05,109.70197 9.43,16.745 19.07,33.565 26.98,51.095 5.35,11.85 9.58,24.33 14.34,36.44 l -1.98,-0.11 c -0.56,1.54 -0.85,2.88 -1.05,4.51 l -1.07,-0.1 c -18.94,-35.72 -38.98,-71.01 -63.66,-103.159 -14.38,-18.73197 -34.12,-33.54997 -45.18,-54.52897 -7.05,24.185 -12.47,49.38497 -21.56,72.86497 -19.53,50.453 -61.04,101.523 -108.7,127.523 -32.33,17.64 -65.09,24.68 -101.723,18.41 -9.096,-1.56 -20.307,-5.76 -29.238,-5.99 -4.034,-2.26 -7.291,-5.5 -10.696,-8.59 16.988,3.41 33.578,5.94 50.936,6.29 45.111,0.92 93.721,-22.16 126.021,-53.22 41.91,-40.31 61.99,-94.592 66.92,-151.70797 1.42,-16.363 1.28,-33.009 1.61,-49.429 z"
     id="path8" />
  <path
     fill="#bd3434"
     d="m 196.17039,210.87623 c 7.6451,8.042 13.9958,16.203 22.7891,23.248 15.5696,12.475 33.1361,20.646 50.8148,29.527 28.9892,14.564 59.2482,28.398 85.8632,47.038 19.756,13.835 38.585,29.173 57.571,44.049 13.441,10.532 28.18,20.79 40.119,32.99 9.992,10.21 17.97,22.097 27.092,33.044 15.719,18.864 34.385,39.437 51.545,57.056 6.387,9.46 20.459,32.299 31.246,35.475 1.784,0.525 3.892,0.445 5.737,0.401 -14.878,3.247 -29.939,4.459 -44.776,8.392 -15.683,-25.497 -33.73,-49.858 -50.572,-74.619 -8.713,-12.809 -17.157,-29.529 -27.989,-40.445 -6.305,-6.354 -14.521,-11.451 -21.65,-16.888 -11.221,-8.677 -22.389,-17.423 -33.502,-26.239 -25.444,-20.077 -54.807,-48.04 -81.491,-64.155 -26.613,-16.073 -91.5186,-34.036 -106.6882,-56.985 -6.0267,-9.117 -8.1873,-21.203 -6.1089,-31.889 z"
     id="path9" />
  <path
     fill="#bd3434"
     d="m 288.76249,977.43123 c -0.084,4.081 -0.404,8.512 0.192,12.549 3.531,23.90197 20.847,55.66097 37.725,73.04097 19.94,20.54 61.803,36.63 90.111,41.06 10.081,0.92 53.148,2.08 59.207,4.11 1.608,0.54 2.68,0.63 4.351,0.7 -11.064,4.17 -22.361,7.37 -33.727,10.6 -19.042,5.31 -45.111,4.96 -64.54,1.22 -30.202,-5.8 -56.659,-21.4 -73.929,-47.14 -18.97,-28.2 -25.946,-62.791 -19.39,-96.13997 z"
     id="path10" />
  <path
     fill="#d64546"
     d="m 389.19249,1102.6012 c 6.473,0.85 22.452,4.64 27.598,1.48 10.081,0.92 53.148,2.08 59.207,4.11 1.608,0.54 2.68,0.63 4.351,0.7 -11.064,4.17 -22.361,7.37 -33.727,10.6 -0.775,-1.28 -1.871,-2.99 -3.108,-3.83 -6.319,-4.34 -34.055,0.52 -54.321,-13.06 z"
     id="path11" />
  <path
     fill="#bd3434"
     d="m 1329.5285,827.31823 c 13.96,48.123 18.88,122.735 9.23,171.954 -3.62,18.23297 -9.95,35.82197 -18.78,52.17897 -24.64,44.77 -65.85,80.18 -115.28,94.58 -17.81,5.18 -40.489,7.77 -59.002,4.74 1.683,-0.1 3.369,-0.24 5.052,-0.31 2.181,-0.09 4.293,-0.11 6.448,-0.52 57.912,-10.99 118.472,-51.75 148.132,-102.97 18.34,-31.668 30.9,-86.49497 31.58,-122.92497 0.16,-6.835 -0.13,-13.674 -0.86,-20.471 -0.62,-5.758 -7.51,-40.361 -5.92,-42.7 2.4,8.458 4.24,36.259 8.33,41.317 -0.29,-9.88 0.51,-22.585 -2.76,-31.89 -1.47,-4.161 -6.38,-37.577 -6.21,-42.119 0.01,-0.289 0.03,-0.577 0.04,-0.865 z"
     id="path12" />
  <path
     fill="#bd3434"
     d="m 611.89449,79.619233 c 4.531,2.5276 6.434,5.8712 7.898,10.7775 4.354,14.595697 4.477,51.659497 1.333,67.246497 -1.088,5.394 -3.131,10.179 -5.894,14.928 -7.052,12.125 -14.517,24.606 -22.238,36.323 -7.113,10.795 -15.292,21.233 -21.595,32.506 -13.012,23.27 -20.428,54.385 -13.716,80.709 5.033,19.737 15.905,35.162 25.73,52.49 -2.242,-0.053 -3.966,-0.074 -5.95,-1.31 -12.288,-7.656 -32.907,-34.692 -36.787,-48.721 -9.097,-32.896 9.525,-69.416 24.297,-97.802 6.509,-12.507 13.031,-25.124 20.923,-36.833 7.56,-11.214 18.316,-20.652 22.148,-34.029 5.57,-19.446 -3.711,-63.176697 3.851,-76.284997 z"
     id="path13" />
  <path
     fill="#bd3434"
     d="m 595.31749,921.63923 c -0.726,3.758 -0.843,8.135 -2.203,11.675 -10.232,26.627 -51.358,66.082 -75.159,82.33297 -28.492,19.455 -67.2,28.604 -101.236,21.764 -20.318,-4.084 -54.885,-20.12 -71.103,-33.124 -6.426,-5.22497 -11.98,-11.43897 -16.455,-18.40897 -5.246,-8.047 -16.715,-24.584 -14.378,-34.382 0.248,-1.036 0.677,-1.949 1.048,-2.935 0.09,-0.241 0.159,-0.489 0.239,-0.733 8.785,21.242 21.31,39.049 40.329,52.28997 30.431,21.339 68.158,29.561 104.708,22.818 40.146,-7.36 80.265,-35.25197 107.101,-65.30697 10.082,-11.291 18.531,-23.536 27.109,-35.99 z"
     id="path14" />
  <path
     fill="#f4837d"
     d="m 1034.6485,565.17723 c 26.776,-11.542 56.711,-11.881 84.933,-5.878 -0.64,2.355 -2.891,3.898 -4.947,5.028 -9.654,5.305 -64.649,9.285 -74.877,5.486 -2.864,-1.063 -3.575,-2.058 -5.109,-4.636 z"
     id="path15" />
  <path
     fill="#d64546"
     d="m 531.96449,477.82823 c 15.811,5.511 23.606,22.976 36.519,32.826 0.685,0.522 1.344,1.079 2.018,1.616 3.385,-0.011 10.25,-0.927 12.975,0.991 -4.734,0.489 -9.756,0.307 -14.529,0.443 -1.845,0.044 -3.953,0.124 -5.737,-0.401 -10.787,-3.176 -24.859,-26.015 -31.246,-35.475 z"
     id="path16" />
  <path
     fill="#d64546"
     d="m 539.97749,537.47323 c 20.203,-6.187 40.967,-9.129 61.917,-4.805 -18.624,0.508 -43.763,10.006 -61.917,4.805 z"
     id="path17" />
  <path
     fill="#d64546"
     d="m 1080.4535,1149.0812 c 11.503,4.62 22.844,9.49 34.958,12.3 3.405,3.09 6.662,6.33 10.696,8.59 -9.497,-0.24 -22.416,-4.5 -31.113,-8.41 -6.235,-2.81 -12.032,-5.77 -14.541,-12.48 z"
     id="path18" />
  <path
     fill="#d64546"
     d="m 251.64379,136.66323 c 14.2715,-3.8388 39.4827,-1.6324 53.3287,2.722 -19.492,3.414 -33.9987,-2.467 -53.3287,-2.722 z"
     id="path19" />
  <path
     fill="#000000"
     d="m 988.36249,978.66323 c -41.983,-70.247 -45.396,-155.485 -25.827,-233.602 11.743,-46.873 35.31,-93.888 78.11301,-119.428 27.562,-16.446 60.547,-20.289 91.419,-12.274 46.441,12.058 81.151,48.244 104.551,88.648 36.9,63.703 53.63,167.993 34.54,239.688 -6.81,25.59 -17.4,57.38 -37.18,75.94497 0.92,5.678 -0.59,8.468 -3.76,13.086 -15.85,23.065 -44.23,36.515 -71.001,41.475 -39.73,7.31 -80.735,-1.53 -113.927,-24.55 -19.788,-13.848 -32.825,-28.757 -47.59201,-47.482 -4.581,-5.80797 -11.046,-12.14297 -12.371,-19.68697 l 1.956,0.107 z"
     id="path20" />
  <path
     fill="#bd3434"
     d="m 988.36249,978.66323 c 33.34401,43.58597 70.12601,73.29797 126.32501,80.51797 31.769,4.09 70.081,0.87 96.091,-19.4 8.39,-6.55 15.8,-14.502 23.2,-22.141 0.92,5.678 -0.59,8.468 -3.76,13.086 -15.85,23.065 -44.23,36.515 -71.001,41.475 -39.73,7.31 -80.735,-1.53 -113.927,-24.55 -19.788,-13.848 -32.825,-28.757 -47.59201,-47.482 -4.581,-5.80797 -11.046,-12.14297 -12.371,-19.68697 l 1.956,0.107 z"
     id="path21" />
  <path
     fill="#faeeec"
     d="m 996.06449,963.74623 c -8.871,-14.031 -15.882,-29.153 -20.858,-44.989 -22.251,-72.306 -14.994,-159.176 20.837,-226.006 15.19301,-28.337 38.12501,-52.689 69.80401,-62.066 30.194,-8.936 63.59,-6.371 91.302,8.803 43.509,23.826 73.769,70.385 89.139,116.594 4.55,13.713 7.05,28.02 11.13,41.89 15.01,58.934 14.27,136.117 -17.6,189.484 -16.99,28.44697 -39.58,48.36497 -72.15,56.24497 -39.624,9.59 -82.65,-0.87 -116.786,-21.907 -22.112,-13.627 -42.889,-34.67797 -54.81801,-58.04797 z"
     id="path22" />
  <path
     fill="#e0b9a5"
     d="m 1257.4185,797.97223 c 15.01,58.934 14.27,136.117 -17.6,189.484 -16.99,28.44697 -39.58,48.36497 -72.15,56.24497 -39.624,9.59 -82.65,-0.87 -116.786,-21.907 -22.112,-13.627 -42.889,-34.67797 -54.81801,-58.04797 8.80201,2.374 16.79501,10.691 24.54101,15.514 32.901,20.484 71.565,32.65597 110.464,29.01797 26.405,-2.47 53.849,-16.39397 72.619,-34.83897 22.75,-22.343 39.87,-52.563 46.26,-83.971 3.13,-15.383 3.31,-85.372 4.9,-88.424 0.52,-0.999 1.82,-2.176 2.57,-3.072 z"
     id="path23" />
  <path
     fill="#000000"
     d="m 1081.3775,672.95623 c 12.556,0.262 25.873,5.033 35.738,12.778 18.486,14.512 29.249,41.014 31.989,63.806 3.536,29.408 -1.502,64.309 -20.585,87.984 -11.763,14.593 -25.389,21.814 -43.861,23.742 -13.271,0.171 -25.683,-2.012 -36.792,-9.665 -17.737,-12.22 -25.546,-31.983 -29.316,-52.44 -5.932,-32.19 -0.575,-70.798 18.521,-97.965 11.343,-16.137 24.951,-24.891 44.306,-28.24 z"
     id="path24" />
  <path
     fill="#faeeec"
     d="m 1095.8575,717.72823 c 4.674,-0.308 9.329,-0.327 13.666,1.692 5.793,2.698 10.199,7.976 12.359,13.929 2.618,7.214 2.452,16.291 -0.848,23.268 -2.745,5.805 -6.803,9.993 -12.842,12.191 -4.457,0.187 -8.797,0.31 -12.944,-1.595 -6.574,-3.021 -11.456,-9.131 -13.886,-15.839 -2.533,-6.992 -2.675,-15.394 0.647,-22.147 3.243,-6.592 7.262,-9.14 13.848,-11.499 z"
     id="path25" />
  <path
     fill="#000000"
     d="m 491.79149,1483.0312 c -23.141,-14.95 -43.732,-36.25 -55.997,-61.12 -15.953,-32.35 -16.631,-69.96 -4.719,-103.75 9.806,-27.82 30.781,-53.11 57.667,-65.73 28.382,-13.32 59.776,-11.12 88.639,-0.38 46.458,17.29 95.398,63.64 116.209,108.55 l 3.704,-1.02 c 3.587,8.69 6.807,18.3 11.453,26.43 10.853,19 33.382,34.77 53.222,43.02 19.542,8.13 43.357,11.06 63.372,2.75 3.439,-1.43 6.692,-3.54 9.729,-5.68 9.324,23.66 24.297,43.37 48.055,53.69 14.82,6.43 29.332,8.39 45.347,8.66 3.76,8.28 7.957,16.66 12.618,24.47 -7.477,5.23 -19.711,3.2 -28.258,1.81 -34.847,-5.67 -55.122,-32.06 -74.408,-58.86 -1.658,1.39 -3.471,2.58 -5.403,3.55 -18.569,9.23 -49.764,2.35 -68.018,-4.76 -7.709,-3 -14.967,-7.56 -22.793,-10.14 -2.132,-0.71 -8.845,-2.61 -10.627,-0.99 -3.468,3.17 -6.925,11.93 -8.766,16.26 -17.147,40.3 -22.597,56.93 -65.303,77.6 -36.887,17.85 -84.076,15.7 -122.143,2.26 -24.594,-8.68 -59.083,-25.59 -70.658,-49.77 5.284,-1.87 10.614,-3.7 16.105,-4.87 3.726,-0.8 7.386,-0.51 10.973,-1.98 z"
     id="path26" />
  <path
     fill="#bd3434"
     d="m 697.29449,1359.5812 c 3.587,8.69 6.807,18.3 11.453,26.43 10.853,19 33.382,34.77 53.222,43.02 19.542,8.13 43.357,11.06 63.372,2.75 3.439,-1.43 6.692,-3.54 9.729,-5.68 9.324,23.66 24.297,43.37 48.055,53.69 14.82,6.43 29.332,8.39 45.347,8.66 3.76,8.28 7.957,16.66 12.618,24.47 -7.477,5.23 -19.711,3.2 -28.258,1.81 -34.847,-5.67 -55.122,-32.06 -74.408,-58.86 -1.658,1.39 -3.471,2.58 -5.403,3.55 -18.569,9.23 -49.764,2.35 -68.018,-4.76 -7.709,-3 -14.967,-7.56 -22.793,-10.14 -2.132,-0.71 -8.845,-2.61 -10.627,-0.99 -3.468,3.17 -6.925,11.93 -8.766,16.26 -17.147,40.3 -22.597,56.93 -65.303,77.6 -36.887,17.85 -84.076,15.7 -122.143,2.26 -24.594,-8.68 -59.083,-25.59 -70.658,-49.77 5.284,-1.87 10.614,-3.7 16.105,-4.87 3.726,-0.8 7.386,-0.51 10.973,-1.98 6.28,1.62 13.054,6.39 19.238,8.81 20.936,8.2 85.875,19.22 108.535,18.66 13.219,-0.33 26.959,-2.89 39.111,-8.2 19.985,-8.74 39.359,-26.43 47.16,-47.1 7.483,-19.82 6.863,-48.79 -0.098,-68.65 -3.111,-8.88 -8.245,-17.36 -12.147,-25.95 z"
     id="path27" />
  <path
     fill="#f15b58"
     d="m 515.01749,1477.4112 c -23.811,-11.75 -45.411,-29.28 -60.034,-51.64 -17.214,-26.32 -21.564,-57.93 -14.903,-88.4 5.673,-25.96 21.075,-51.34 43.724,-65.79 21.504,-13.72 48.567,-15.18 72.929,-9.57 50.963,11.73 93.772,54.07 120.435,97.16 15.497,24.99 23.836,54.68 16.862,84.06 -3.848,16.22 -14.008,28.98 -28.217,37.48 -22.271,13.32 -50.38,13.27 -74.908,6.82 -31.222,-8.2 -58.044,-24.92 -75.802,-52.15 -2.833,-0.53 -3.779,-1.16 -6.37,0.24 -0.587,3.58 2.57,7.62 4.211,10.72 0.443,0.84 0.334,0.49 0.381,1.37 9.158,21.36 26.784,31.79 45.472,44.15 -14.282,-3.33 -30.859,-7.39 -43.78,-14.45 z"
     id="path28" />
  <path
     fill="#bd3434"
     d="m 677.16849,1359.1712 c 15.497,24.99 23.836,54.68 16.862,84.06 -3.848,16.22 -14.008,28.98 -28.217,37.48 -22.271,13.32 -50.38,13.27 -74.908,6.82 -31.222,-8.2 -58.044,-24.92 -75.802,-52.15 -4.992,-7.62 -9.818,-15.05 -12.844,-23.69 8.204,3.94 14.2,12.06 20.878,18.12 23.05,20.91 51.847,37.19 83.234,39.96 19.199,1.69 44.664,-1.02 59.867,-14.07 17.689,-15.19 21.632,-44.31 16.932,-66.01 -2,-9.23 -6.942,-20.3 -6.113,-29.58 0.028,-0.32 0.074,-0.63 0.111,-0.94 z"
     id="path29" />
  <path
     fill="#bd3434"
     d="m 513.32549,1447.7112 c 9.158,21.36 26.784,31.79 45.472,44.15 -14.282,-3.33 -30.859,-7.39 -43.78,-14.45 l 1.238,-0.73 c 2.424,-5.21 -4.468,-18.6 -6.359,-24.15 z"
     id="path30" />
  <path
     fill="#190000"
     d="m 509.89649,1452.5312 c -9.783,-17.28 -12.766,-35.16 -16.422,-54.26 3.158,4.38 6.117,8.72 8.785,13.42 3.026,8.64 7.852,16.07 12.844,23.69 -2.833,-0.53 -3.779,-1.16 -6.37,0.24 -0.587,3.58 2.57,7.62 4.211,10.72 0.443,0.84 0.334,0.49 0.381,1.37 z"
     id="path31" />
  <path
     fill="#f4837d"
     d="m 507.13449,1274.7912 c 0.346,-0.03 0.69,-0.07 1.036,-0.08 3.685,-0.13 8.609,0.11 11.218,3.15 1.856,2.16 1.749,5.2 1.083,7.78 -4.174,16.18 -27.63,32.48 -41.594,40.46 -2.502,0.35 -6.819,1.37 -9.212,0.54 -2.084,-0.72 -3.543,-2.07 -4.353,-4.13 -1.474,-3.74 0.392,-7.96 1.914,-11.41 7.877,-17.9 21.897,-29.48 39.908,-36.31 z"
     id="path32" />
  <path
     fill="#000000"
     d="m 891.70449,882.65723 c 0.562,0.41 1.195,1.389 1.639,1.942 5.751,32.266 2.445,79.179 -2.508,111.678 -8.699,57.09397 -28.833,142.07397 -78.361,178.04397 -10.731,7.8 -22.675,13.09 -36.157,10.74 -22.773,-3.98 -41.067,-23.52 -53.774,-41.47 -43.186,-69.62 -39.969,-163.48697 -33.621,-242.06497 13.5,1.959 26.7,5.686 40.265,7.431 60.302,7.758 106.917,-3.964 162.517,-26.3 z"
     id="path33" />
  <path
     fill="#440f10"
     d="m 882.29849,898.55223 c 0.98,0.13 1.577,0.637 2.404,1.15 3.054,9.988 -2.181,67.137 -3.951,81.803 -1.233,10.212 -8.213,66.93597 -15.437,72.58597 -1.551,-1.51 -2.301,-3.44 -3.779,-4.98 -4.088,-4.26 -10.887,-7.34 -16.57,-8.66 -18.665,-4.34 -38.662,3.44 -54.213,13.4 -20.176,12.93 -37.331,37.97 -42.369,61.37 -3.935,18.28 -3.576,30.67 6.632,46.57 -7.394,-7.1 -13.975,-14.07 -19.711,-22.6 -37.626,-56.05 -44.949,-160.59197 -35.405,-225.68397 1.048,0.527 1.501,0.793 2.538,1.193 9.961,3.844 23.056,4.748 33.722,5.916 52.201,5.716 97.813,-1.885 146.139,-22.064 z"
     id="path34" />
  <path
     fill="#bd3434"
     d="m 834.28149,1051.0412 c 10.951,-0.38 19.629,8.92 27.432,15.53 -5.545,21.06 -14.8,42.91 -26.242,61.48 -11.365,18.44 -29.066,40.44 -51.179,45.64 -6.662,-0.59 -13.41,-4.04 -18.346,-8.58 -7.356,-6.75 -9.71,-16.64 -10.222,-26.23 -1.225,-22.95 7.919,-43.81 23.207,-60.67 14.596,-16.09 33.542,-26.14 55.35,-27.17 z"
     id="path35" />
  <path
     fill="#000000"
     d="m 824.53649,1360.3212 c 5.25,-44.41 27.415,-86.86 62.588,-114.84 28.031,-22.29 62.639,-35.23 98.692,-31.12 21.92901,2.5 46.42201,11.86 63.56001,25.94 8.04,6.6 15.224,14.53 23.757,20.49 14.95,10.44 31.151,18.82 42.688,33.46 2.416,3.06 4.423,6.44 6.535,9.71 -16.176,-14.38 -34.129,-26.38 -49.96,-41.14 17.831,25.73 25.904,48.72 26.875,80.11 -12.056,-40.46 -27.05,-75.86 -66.382,-97.41 -30.013,-16.44 -66.17401,-18.35 -98.62601,-8.62 -33.729,10.11 -62.25,38.01 -78.403,68.64 -14.418,27.33 -18.33,54.91 -16.088,85.41 l 1.756,2.22 2.714,0.16 c 4.257,5.72 7.572,12.19 12.277,17.55 13.413,15.28 37.658,25.37 57.439,28.17 34.352,4.88 62.99,-7.46 89.85201,-27.91 11.24,-8.55 20.303,-17.88 30.457,-27.59 l 0.953,1.23 c -1.037,4.9 -5.979,9.09 -5.587,13.72 l 2.15,1.06 2.177,-0.26 c 0.508,9.4 -8.034,22.81 -12.798,30.62 3.093,8.45 -4.184,24.02 -4.906,33.51 -2.575,33.81 7.412,93.88 36.358,114.33 4.733,2.37 11.303,7.02 12.72,12.45 0.406,1.56 0.01,3.5 -0.253,5.07 3.976,1.81 7.771,3.97 11.6,6.07 -2.976,-0.27 -5.941,-0.66 -8.887,-1.16 -33.568,-5.97 -70.32601,-25.4 -94.89901,-48.9 -12.021,-11.49 -22.232,-24.81 -31.805,-38.37 -4.661,-7.81 -8.858,-16.19 -12.618,-24.47 -16.015,-0.27 -30.527,-2.23 -45.347,-8.66 -23.758,-10.32 -38.731,-30.03 -48.055,-53.69 -3.037,2.14 -6.29,4.25 -9.729,5.68 -20.015,8.31 -43.83,5.38 -63.372,-2.75 -19.84,-8.25 -42.369,-24.02 -53.222,-43.02 -4.646,-8.13 -7.866,-17.74 -11.453,-26.43 l -1.818,-4.63 c -0.033,-2.62 0.049,-4.61 0.889,-7.1 2.531,-0.32 3.686,1.17 5.736,2.56 l -0.056,-5.54 c 26.596,17.63 51.014,36.35 85.001,29.52 13.461,-2.71 24.577,-10.81 37.49,-14.07 z"
     id="path36" />
  <path
     fill="#bd3434"
     d="m 937.56749,1487.9412 c 38.049,-5.6 59.956,-30.38 83.59501,-58.02 3.093,8.45 -4.184,24.02 -4.906,33.51 -2.575,33.81 7.412,93.88 36.358,114.33 4.733,2.37 11.303,7.02 12.72,12.45 0.406,1.56 0.01,3.5 -0.253,5.07 l -8.928,-4.15 c -8.989,-1.45 -18.337,-7.54 -26.327,-11.77 -27.504,-14.56 -51.84201,-33.37 -70.17501,-58.77 -7.693,-10.66 -14.26,-22.07 -22.084,-32.65 z"
     id="path37" />
  <path
     fill="#d64546"
     d="m 1052.6145,1577.7612 c 4.733,2.37 11.303,7.02 12.72,12.45 0.406,1.56 0.01,3.5 -0.253,5.07 l -8.928,-4.15 -2.059,-4.58 c -1.565,-3.39 -2.063,-5.03 -1.48,-8.79 z"
     id="path38" />
  <path
     fill="#bd3434"
     d="m 839.77249,1390.9512 1.756,2.22 2.714,0.16 c 4.257,5.72 7.572,12.19 12.277,17.55 13.413,15.28 37.658,25.37 57.439,28.17 34.352,4.88 62.99,-7.46 89.85201,-27.91 11.24,-8.55 20.303,-17.88 30.457,-27.59 l 0.953,1.23 c -1.037,4.9 -5.979,9.09 -5.587,13.72 l 2.15,1.06 c -0.425,0.75 -0.552,1.01 -1.106,1.8 -22.471,32.09 -54.08401,64.12 -94.19901,70.54 -20.419,3.27 -44.684,-0.83 -61.559,-13.27 -21.532,-15.87 -31.441,-42.1 -35.147,-67.68 z"
     id="path39" />
  <path
     fill="#bd3434"
     d="m 702.04549,1344.8712 c 26.596,17.63 51.014,36.35 85.001,29.52 13.461,-2.71 24.577,-10.81 37.49,-14.07 -0.059,20.15 1.201,37.63 6.137,57.23 -17.429,8.45 -37.444,9.87 -55.89,3.95 -23.981,-7.53 -48.052,-23.99 -60.721,-46.14 -4.453,-7.79 -7.353,-16.35 -11.581,-24.25 l -0.38,-0.7 z"
     id="path40" />
  <path
     fill="#f4837d"
     d="m 921.47249,1252.6012 c 4.589,-0.33 8.338,-0.21 12.269,2.41 1.678,2.61 2.612,4.24 1.827,7.5 -3.118,12.92 -31.145,34.42 -42.436,41.55 -3.586,1.83 -7.415,2.81 -11.265,3.93 -0.526,-8.61 -0.681,-15.4 3.081,-23.36 6.672,-14.11 21.976,-26.85 36.524,-32.03 z"
     id="path41" />
  <path
     fill="#000000"
     d="m 1352.2485,1134.2612 c 0.16,0.46 0.36,0.9 0.47,1.36 3.3,13.02 -18.07,45.58 -25.66,55.53 -19.25,25.26 -49.35,51.75 -81.94,56.2 -0.41,-1.77 -0.33,-1.98 1.1,-3.25 3.91,-3.46 12,-6.36 16.86,-9.02 7.9,-4.32 15.51,-9.15 22.8,-14.46 29.95,-22.25 50.04,-53.41 66.37,-86.36 z"
     id="path42" />
  <path
     fill="#000000"
     d="m 1572.8585,1388.0012 c 1.05,0.83 1.65,1.3 2.09,2.65 5.31,16.33 -17.5,74.96 -26.88,89.14 -2.01,-3.99 1.84,-10.34 3.42,-14.26 10.26,-25.45 15.64,-50.81 21.37,-77.53 z"
     id="path43" />
  <path
     fill="#f4837d"
     d="m 1502.6285,1054.8912 c 9.02,-0.66 45.88,0.52 53.91,2.51 3.82,0.94 5.53,1.71 7.55,5.01 -13.06,1.86 -48.89,-0.49 -60.7,-4.99 z"
     id="path44" />
  <path
     fill="#190000"
     d="m 695.47649,1354.9512 c -1.879,-5.74 -11.849,-29.32 -11.019,-33.68 7.066,3.95 12.978,16.9 17.588,23.6 l 0.056,5.54 c -2.05,-1.39 -3.205,-2.88 -5.736,-2.56 -0.84,2.49 -0.922,4.48 -0.889,7.1 z"
     id="path45" />
  <path
     fill="#faeeec"
     d="m 426.79949,631.55123 1.068,2.377 c 2.43,0.443 4.002,-0.326 6.162,-1.332 5.848,-2.722 11.233,-6.742 16.804,-10.005 8.081,-4.731 16.85,-8.927 25.558,-12.341 46.092,-18.069 106.673,-17.434 137.155,27.016 29.745,43.375 25.682,110.19 16.371,159.643 -2.725,14.474 -7.745,28.87 -11.875,43.006 -2.168,9.977 -6.304,19.755 -10.182,29.176 -18.649,45.3 -49.292,89.975 -90.975,116.805 -31.951,20.56497 -70.94,31.77397 -108.707,23.34197 -28.035,-6.259 -54.195,-21.97597 -69.674,-46.57597 -13.944,-22.159 -22.252,-54.95 -21.713,-80.99 -4.477,-89.826 41.519,-189.413 96.467,-258.425 4.018,-5.394 8.52,-10.136 13.192,-14.961 4.376,3.824 3.491,9.36 7.877,13.049 -3.446,3.213 -5.351,6.107 -7.528,10.216 z"
     id="path46" />
  <path
     fill="#e0b9a5"
     d="m 316.79149,881.67223 c 10.775,19.397 15.373,40.692 30.369,57.921 23.102,26.544 52.082,37.709 86.63,39.874 68.279,4.28 126.278,-41.636 158.809,-98.16 2.998,-5.21 18.472,-36.172 21.196,-38.253 1.394,-1.065 2.83,-2.103 4.247,-3.139 -2.168,9.977 -6.304,19.755 -10.182,29.176 -18.649,45.3 -49.292,89.975 -90.975,116.805 -31.951,20.56497 -70.94,31.77397 -108.707,23.34197 -28.035,-6.259 -54.195,-21.97597 -69.674,-46.57597 -13.944,-22.159 -22.252,-54.95 -21.713,-80.99 z"
     id="path47" />
  <path
     fill="#e0b9a5"
     d="m 426.45049,608.28623 c 4.376,3.824 3.491,9.36 7.877,13.049 -3.446,3.213 -5.351,6.107 -7.528,10.216 l -0.88,-2.618 c -3.661,-3 -7.807,-3.255 -11.955,-5.325 -0.237,-0.118 -0.471,-0.24 -0.706,-0.361 4.018,-5.394 8.52,-10.136 13.192,-14.961 z"
     id="path48" />
  <path
     fill="#000000"
     d="m 507.09149,648.97523 0.898,-0.06 c 11.873,-0.687 24.338,2.81 33.277,10.876 11.626,10.489 15.831,26.396 16.646,41.511 1.902,35.241 -10.846,80.1 -34.691,106.466 -14.41,15.934 -30.486,24.899 -52.003,25.888 -10.189,-0.249 -18.985,-2.441 -27.396,-8.44 -13.602,-9.7 -20.302,-26.721 -22.815,-42.713 -5.298,-33.708 8.411,-71.057 28.19,-97.99 15.121,-20.59 32.708,-31.571 57.894,-35.538 z"
     id="path49" />
  <path
     fill="#faeeec"
     d="m 513.58849,697.86623 c 3.364,-0.297 6.839,-0.564 10.143,0.333 4.534,1.232 8.476,4.532 10.741,8.608 3.294,5.928 3.297,13.641 1.085,19.932 -2.909,8.277 -8.051,12.601 -15.687,16.183 -2.951,0.538 -6.036,1.198 -9.039,0.725 -4.284,-0.675 -8.428,-3.504 -10.71,-7.179 -3.418,-5.504 -3.623,-13.091 -1.88,-19.177 2.457,-8.576 7.653,-15.081 15.347,-19.425 z"
     id="path50" />
  <path
     fill="#f15b58"
     d="m 1552.0885,969.53223 c 12.9,-25.457 29.46,-43.441 57.09,-52.49 29.26,-9.583 64.24,-4.116 91.4,9.721 44.27,22.557 76.75,69.385 91.61,115.96797 1.81,5.68 3.42,11.42 4.84,17.21 l 4.03,14.83 c 16.96,72.16 5.44,135.74 -25.51,202.01 -7.17,-30.95 -18.07,-62.31 -32.97,-90.42 -35.01,-66.05 -85.27,-108.35 -151.68,-141.31 -16.68,-8.28 -34.32,-17.086 -52.15,-22.535 1.63,-19.261 4.33,-35.60797 13.34,-52.98397 z"
     id="path51" />
  <path
     fill="#bd3434"
     d="m 1552.0885,969.53223 c 10.04,22.666 45.8,31.28397 66.7,41.15397 15.45,7.296 31.19,15.483 45.4,25.005 28.1,18.84 55.34,50.13 86.81,62.09 10.31,3.92 19.49,3.33 30.04,0.78 13.11,-11.27 12.65,-23.12 15.99,-38.62 l 4.03,14.83 c 16.96,72.16 5.44,135.74 -25.51,202.01 -7.17,-30.95 -18.07,-62.31 -32.97,-90.42 -35.01,-66.05 -85.27,-108.35 -151.68,-141.31 -16.68,-8.28 -34.32,-17.086 -52.15,-22.535 1.63,-19.261 4.33,-35.60797 13.34,-52.98397 z"
     id="path52" />
  <path
     fill="#d64546"
     d="m 1797.0285,1059.9412 4.03,14.83 -0.92,5.16 c -0.7,-2.93 -1.14,-6.73 -2.71,-9.3 -1.53,1.89 -2.48,3.45 -2.22,6.01 0.57,5.59 4.28,13.59 0.54,18.51 -1.54,2.03 -3.75,3.13 -6.26,3.39 -2.76,0.28 -5.68,0.09 -8.45,0.02 13.11,-11.27 12.65,-23.12 15.99,-38.62 z"
     id="path53" />
  <path
     fill="#f4837d"
     d="m 1624.5385,924.06823 c 17.65,-0.644 41.93,6.275 58.58,12.241 4.08,1.461 8.49,3.115 12.19,5.372 14.5,8.84 41.69,35.106 48.82,50.306 2.14,4.566 4.9,11.71597 2.72,16.60397 -0.72,1.617 -2.29,3.401 -3.98,3.932 -7.14,2.244 -29.41,-0.096 -36.42,-4.006 -13.04,-14.27997 -77.13,-50.35097 -96.59,-57.00197 -10.41,-3.56 -22.03,-4.109 -32.86,-5.906 15.53,-10.417 28.57,-19.118 47.54,-21.541 z"
     id="path54" />
</svg>
